<svg xmlns="http://www.w3.org/2000/svg" viewBox="0 0 40.05 40.99"><defs><style>.cls-1{fill:#2077bc;}</style></defs><title>admin</title><g id="Layer_2" data-name="Layer 2"><g id="Layer_1-2" data-name="Layer 1"><path class="cls-1" d="M35.32,22.52l4.34,3.37a.92.92,0,0,1,.19,1.34l-4.14,7.12a.94.94,0,0,1-1.25.39l-5.1-2a17.65,17.65,0,0,1-3.47,2l-.77,5.39a.94.94,0,0,1-1,.86H15.89a.94.94,0,0,1-1-.86l-.77-5.39a15.71,15.71,0,0,1-3.46-2l-5.1,2a.94.94,0,0,1-1.25-.39L.2,27.23c-.32-.57-.26-1,.19-1.34l4.33-3.37a16.59,16.59,0,0,1-.09-2,16.59,16.59,0,0,1,.09-2L.39,15.11c-.45-.32-.51-.77-.19-1.35L4.34,6.64a.94.94,0,0,1,1.25-.39l5.1,2a17.52,17.52,0,0,1,3.46-2L14.92.87a1,1,0,0,1,1-.87h8.27a.94.94,0,0,1,1,.87l.77,5.38a15.82,15.82,0,0,1,3.47,2l5.1-2a.94.94,0,0,1,1.25.39l4.14,7.12a.93.93,0,0,1-.19,1.35l-4.34,3.37a14.41,14.41,0,0,1,.1,2A14.41,14.41,0,0,1,35.32,22.52ZM14.92,25.6A7,7,0,0,0,20,27.71a7.22,7.22,0,0,0,7.22-7.21A7.24,7.24,0,0,0,20,13.28a7.22,7.22,0,0,0-7.21,7.22A7,7,0,0,0,14.92,25.6Z"/></g></g></svg>